<svg width="400" height="400" viewBox="0 0 400 400" xmlns="http://www.w3.org/2000/svg">
<defs>
    <filter id="shadow" x="-20%" y="-20%" width="140%" height="140%">
        <feDropShadow dx="2" dy="4" stdDeviation="3" flood-opacity="0.3"/>
    </filter>
    <linearGradient id="sky-gradient" x1="0%" y1="0%" x2="0%" y2="100%">
        <stop offset="0%" stop-color="#87CEEB"/><stop offset="100%" stop-color="#E0F4FF"/>
    </linearGradient>
</defs>
<rect width="400" height="400" fill="#F0F8FF"/>
<ellipse cx="130" cy="160" rx="30" ry="60" fill="#D2B48C" transform="rotate(20 130 160)" filter="url(#shadow)"/>
<ellipse cx="270" cy="160" rx="30" ry="60" fill="#D2B48C" transform="rotate(-20 270 160)" filter="url(#shadow)"/>
<rect x="120" y="120" width="160" height="150" rx="40" fill="#D2B48C" filter="url(#shadow)"/>
<ellipse cx="200" cy="220" rx="50" ry="35" fill="#E8D4B8" opacity="0.6"/>
<circle cx="165" cy="180" r="15" fill="#FFF"/>
<circle cx="235" cy="180" r="15" fill="#FFF"/>
<circle cx="165" cy="180" r="8" fill="#000"/>
<circle cx="235" cy="180" r="8" fill="#000"/>
<ellipse cx="200" cy="210" rx="20" ry="15" fill="#000"/>
<ellipse cx="195" cy="205" rx="5" ry="3" fill="#FFF" opacity="0.5"/>
<path d="M185 230 Q200 245 215 230" stroke="#000" stroke-width="3" fill="none"/>
</svg>